<?xml version="1.0" standalone="no"?>
<!DOCTYPE svg PUBLIC "-//W3C//DTD SVG 20010904//EN"
 "http://www.w3.org/TR/2001/REC-SVG-20010904/DTD/svg10.dtd">
<svg version="1.0" xmlns="http://www.w3.org/2000/svg"
 width="260.000000pt" height="260.000000pt" viewBox="0 0 260.000000 260.000000"
 preserveAspectRatio="xMidYMid meet">
<metadata>
Created by potrace 1.11, written by Peter Selinger 2001-2013
</metadata>
<g transform="translate(0.000000,260.000000) scale(0.100000,-0.100000)"
fill="#000000" stroke="none">
<path d="M0 1300 l0 -1300 1300 0 1300 0 0 1300 0 1300 -1300 0 -1300 0 0
-1300z m2120 745 c177 -55 271 -171 272 -334 1 -124 -55 -225 -158 -283 -30
-16 -54 -31 -54 -33 0 -2 24 -15 54 -28 151 -69 230 -219 206 -387 -24 -170
-147 -296 -333 -344 -136 -35 -421 -45 -579 -19 l-38 6 0 712 0 713 68 7 c37
4 72 8 77 11 6 2 105 2 220 0 164 -3 222 -7 265 -21z"/>
<path d="M1788 1853 c-16 -4 -18 -22 -18 -190 l0 -185 93 4 c157 7 235 65 245
181 8 103 -47 170 -154 187 -60 10 -135 11 -166 3z"/>
<path d="M1770 1052 l0 -222 26 -6 c51 -13 168 2 226 28 67 31 105 77 117 144
17 91 -11 168 -77 215 -52 37 -88 47 -197 55 l-95 7 0 -221z"/>
</g>
</svg>
